M48
; DRILL file {KiCad 8.0.4} date 2025-01-05T13:35:25+0530
; FORMAT={-:-/ absolute / inch / decimal}
; #@! TF.CreationDate,2025-01-05T13:35:25+05:30
; #@! TF.GenerationSoftware,Kicad,Pcbnew,8.0.4
; #@! TF.FileFunction,Plated,1,2,PTH
FMAT,2
INCH
; #@! TA.AperFunction,Plated,PTH,ComponentDrill
T1C0.0315
; #@! TA.AperFunction,Plated,PTH,ComponentDrill
T2C0.0354
; #@! TA.AperFunction,Plated,PTH,ComponentDrill
T3C0.0394
; #@! TA.AperFunction,Plated,PTH,ComponentDrill
T4C0.0433
; #@! TA.AperFunction,Plated,PTH,ComponentDrill
T5C0.0472
; #@! TA.AperFunction,Plated,PTH,ComponentDrill
T6C0.0512
; #@! TA.AperFunction,Plated,PTH,ComponentDrill
T7C0.1181
%
G90
G05
T1
X6.7657Y-4.1542
X6.7661Y-3.8081
X6.7661Y-6.0735
X6.7669Y-3.9825
X6.7672Y-7.0294
X6.7676Y-5.9073
X6.7676Y-6.6951
X6.768Y-4.9435
X6.768Y-5.1128
X6.768Y-5.74
X6.7684Y-4.7735
X6.7684Y-6.8617
X6.7901Y-3.4038
X6.7901Y-3.7038
X6.7913Y-6.2935
X6.7913Y-6.5935
X6.7917Y-4.3719
X6.7917Y-4.6719
X6.7917Y-5.3369
X6.7917Y-5.6369
X6.8901Y-3.4038
X6.8901Y-3.7038
X6.8913Y-6.2935
X6.8913Y-6.5935
X6.8917Y-4.3719
X6.8917Y-4.6719
X6.8917Y-5.3369
X6.8917Y-5.6369
X6.9901Y-3.4038
X6.9901Y-3.7038
X6.9913Y-6.2935
X6.9913Y-6.5935
X6.9917Y-4.3719
X6.9917Y-4.6719
X6.9917Y-5.3369
X6.9917Y-5.6369
X7.0901Y-3.4038
X7.0901Y-3.7038
X7.0913Y-6.2935
X7.0913Y-6.5935
X7.0917Y-4.3719
X7.0917Y-4.6719
X7.0917Y-5.3369
X7.0917Y-5.6369
X7.1657Y-4.1542
X7.1661Y-3.8081
X7.1661Y-6.0735
X7.1669Y-3.9825
X7.1672Y-7.0294
X7.1676Y-5.9073
X7.1676Y-6.6951
X7.168Y-4.9435
X7.168Y-5.1128
X7.168Y-5.74
X7.1684Y-4.7735
X7.1684Y-6.8617
X7.1936Y-3.4199
X7.1936Y-3.5435
X7.1942Y-5.3526
X7.1942Y-5.4723
X7.1942Y-6.3093
X7.1942Y-6.429
X7.1952Y-4.3876
X7.1952Y-4.5069
X7.5936Y-3.4199
X7.5936Y-3.5435
X7.5942Y-5.3526
X7.5942Y-5.4723
X7.5942Y-6.3093
X7.5942Y-6.429
X7.5952Y-4.3876
X7.5952Y-4.5069
T2
X6.5932Y-4.0526
X6.5932Y-4.1526
X6.5964Y-5.0353
X6.5964Y-5.1353
X6.5964Y-5.9786
X6.5964Y-6.0786
X6.5972Y-6.9392
X6.5972Y-7.0392
X7.2869Y-3.7325
X7.2873Y-5.6593
X7.2873Y-6.6176
X7.2889Y-4.6947
X7.3869Y-3.7325
X7.3873Y-5.6593
X7.3873Y-6.6176
X7.3889Y-4.6947
T3
X5.2767Y-3.4254
X5.2767Y-3.6254
X5.2767Y-4.3935
X5.2767Y-4.5935
X5.2767Y-5.3585
X5.2767Y-5.5585
X5.2767Y-6.3152
X5.2767Y-6.5152
X5.4767Y-3.4254
X5.4767Y-3.6254
X5.4767Y-4.3935
X5.4767Y-4.5935
X5.4767Y-5.3585
X5.4767Y-5.5585
X5.4767Y-6.3152
X5.4767Y-6.5152
X6.2015Y-4.1254
X6.2062Y-5.1042
X6.2121Y-6.0475
X6.2125Y-7.0081
X6.3983Y-4.1254
X6.4031Y-5.1042
X6.409Y-6.0475
X6.4094Y-7.0081
X6.4149Y-3.7664
X6.4172Y-4.7502
X6.4188Y-5.6939
X6.4212Y-6.655
X6.6117Y-3.7664
X6.614Y-4.7502
X6.6157Y-5.6939
X6.618Y-6.655
X7.5641Y-3.7365
X7.5647Y-4.6947
X7.5647Y-5.6613
X7.5647Y-6.6113
X7.7094Y-5.6606
T4
X6.4208Y-3.4943
X6.4235Y-4.4624
X6.4239Y-5.4274
X6.4243Y-6.3841
X6.5208Y-3.4943
X6.5235Y-4.4624
X6.5239Y-5.4274
X6.5243Y-6.3841
X6.6208Y-3.4943
X6.6235Y-4.4624
X6.6239Y-5.4274
X6.6243Y-6.3841
T5
X5.9448Y-3.5546
X5.9448Y-3.8498
X5.948Y-4.5291
X5.948Y-4.8243
X5.9495Y-5.4632
X5.9495Y-5.7585
X5.9499Y-6.4495
X5.9499Y-6.7448
T6
X5.3743Y-3.9746
X5.3743Y-4.1715
X5.3743Y-4.9424
X5.3743Y-5.1392
X5.3743Y-5.9061
X5.3743Y-6.103
X5.3743Y-6.8648
X5.3743Y-7.0617
X7.4342Y-3.9794
X7.4342Y-4.1762
X7.4348Y-4.9424
X7.4348Y-5.1392
X7.4348Y-5.9061
X7.4348Y-6.103
X7.4348Y-6.8648
X7.4348Y-7.0617
T7
X5.1161Y-3.3394
X5.1161Y-7.2114
X7.7598Y-3.3394
X7.7598Y-7.2114
M30
