%TF.GenerationSoftware,KiCad,Pcbnew,8.0.4*%
%TF.CreationDate,2025-01-05T13:35:29+05:30*%
%TF.ProjectId,Driver Circuit Combined - V1,44726976-6572-4204-9369-726375697420,rev?*%
%TF.SameCoordinates,Original*%
%TF.FileFunction,Copper,L1,Top*%
%TF.FilePolarity,Positive*%
%FSLAX46Y46*%
G04 Gerber Fmt 4.6, Leading zero omitted, Abs format (unit mm)*
G04 Created by KiCad (PCBNEW 8.0.4) date 2025-01-05 13:35:29*
%MOMM*%
%LPD*%
G01*
G04 APERTURE LIST*
%TA.AperFunction,ComponentPad*%
%ADD10R,1.905000X2.000000*%
%TD*%
%TA.AperFunction,ComponentPad*%
%ADD11O,1.905000X2.000000*%
%TD*%
%TA.AperFunction,ComponentPad*%
%ADD12C,1.600000*%
%TD*%
%TA.AperFunction,ComponentPad*%
%ADD13O,1.600000X1.600000*%
%TD*%
%TA.AperFunction,ComponentPad*%
%ADD14R,1.800000X1.800000*%
%TD*%
%TA.AperFunction,ComponentPad*%
%ADD15C,1.800000*%
%TD*%
%TA.AperFunction,ComponentPad*%
%ADD16R,2.600000X2.600000*%
%TD*%
%TA.AperFunction,ComponentPad*%
%ADD17C,2.600000*%
%TD*%
%TA.AperFunction,ComponentPad*%
%ADD18C,2.000000*%
%TD*%
%TA.AperFunction,ComponentPad*%
%ADD19R,1.600000X1.600000*%
%TD*%
%TA.AperFunction,ComponentPad*%
%ADD20R,2.400000X2.400000*%
%TD*%
%TA.AperFunction,ComponentPad*%
%ADD21C,2.400000*%
%TD*%
%TA.AperFunction,ComponentPad*%
%ADD22R,2.000000X2.000000*%
%TD*%
%TA.AperFunction,ComponentPad*%
%ADD23O,2.000000X2.000000*%
%TD*%
%TA.AperFunction,ComponentPad*%
%ADD24R,1.700000X1.700000*%
%TD*%
%TA.AperFunction,ComponentPad*%
%ADD25C,3.200000*%
%TD*%
G04 APERTURE END LIST*
D10*
%TO.P,7815,1,IN*%
%TO.N,Net-(D2-+)*%
X163158000Y-113346000D03*
D11*
%TO.P,7815,2,GND*%
%TO.N,GND2*%
X165698000Y-113346000D03*
%TO.P,7815,3,OUT*%
%TO.N,Net-(D6-A)*%
X168238000Y-113346000D03*
%TD*%
D12*
%TO.P,10E,1*%
%TO.N,Net-(J8-Pin_2)*%
X182058000Y-170056000D03*
D13*
%TO.P,10E,2*%
%TO.N,Net-(R12-Pad2)*%
X171898000Y-170056000D03*
%TD*%
D12*
%TO.P,10K,1*%
%TO.N,Net-(J7-Pin_2)*%
X182058000Y-150046000D03*
D13*
%TO.P,10K,2*%
%TO.N,GND3*%
X171898000Y-150046000D03*
%TD*%
D12*
%TO.P,220E,1*%
%TO.N,Net-(U5-A)*%
X182718000Y-90006000D03*
D13*
%TO.P,220E,2*%
%TO.N,Net-(D9-A)*%
X192878000Y-90006000D03*
%TD*%
D12*
%TO.P,220E,1*%
%TO.N,Net-(U6-A)*%
X182758000Y-114476000D03*
D13*
%TO.P,220E,2*%
%TO.N,Net-(D10-A)*%
X192918000Y-114476000D03*
%TD*%
D10*
%TO.P,7815,1,IN*%
%TO.N,Net-(D4-+)*%
X163178000Y-162156000D03*
D11*
%TO.P,7815,2,GND*%
%TO.N,GND4*%
X165718000Y-162156000D03*
%TO.P,7815,3,OUT*%
%TO.N,Net-(D8-A)*%
X168258000Y-162156000D03*
%TD*%
D14*
%TO.P,SIG LED 2,1,K*%
%TO.N,Net-(D10-K)*%
X185138000Y-119246000D03*
D15*
%TO.P,SIG LED 2,2,A*%
%TO.N,Net-(D10-A)*%
X187678000Y-119246000D03*
%TD*%
D12*
%TO.P,10K,1*%
%TO.N,Net-(J8-Pin_2)*%
X182078000Y-174286000D03*
D13*
%TO.P,10K,2*%
%TO.N,GND4*%
X171918000Y-174286000D03*
%TD*%
D16*
%TO.P,AC INPUT 3,1,Pin_1*%
%TO.N,Net-(J3-Pin_1)*%
X136508000Y-150016000D03*
D17*
%TO.P,AC INPUT 3,2,Pin_2*%
%TO.N,Net-(J3-Pin_2)*%
X136508000Y-155016000D03*
%TD*%
D12*
%TO.P,220E,1*%
%TO.N,Net-(U8-A)*%
X182733000Y-163296000D03*
D13*
%TO.P,220E,2*%
%TO.N,Net-(D12-A)*%
X192893000Y-163296000D03*
%TD*%
D18*
%TO.P,0.1uF,1*%
%TO.N,Net-(D6-A)*%
X162638000Y-129646000D03*
%TO.P,0.1uF,2*%
%TO.N,GND2*%
X157638000Y-129646000D03*
%TD*%
D19*
%TO.P,TL250H,1,NC*%
%TO.N,unconnected-(U5-NC-Pad1)*%
X180088000Y-86456000D03*
D13*
%TO.P,TL250H,2,A*%
%TO.N,Net-(U5-A)*%
X177548000Y-86456000D03*
%TO.P,TL250H,3,C*%
%TO.N,GND1*%
X175008000Y-86456000D03*
%TO.P,TL250H,4,NC*%
%TO.N,unconnected-(U5-NC-Pad4)*%
X172468000Y-86456000D03*
%TO.P,TL250H,5,VEE*%
%TO.N,GND*%
X172468000Y-94076000D03*
%TO.P,TL250H,6,VO*%
%TO.N,Net-(R9-Pad2)*%
X175008000Y-94076000D03*
%TO.P,TL250H,7,VO*%
%TO.N,unconnected-(U5-VO-Pad7)*%
X177548000Y-94076000D03*
%TO.P,TL250H,8,VCC*%
%TO.N,Net-(D5-A)*%
X180088000Y-94076000D03*
%TD*%
D12*
%TO.P,10E,1*%
%TO.N,Net-(J7-Pin_2)*%
X182068000Y-145796000D03*
D13*
%TO.P,10E,2*%
%TO.N,Net-(R11-Pad2)*%
X171908000Y-145796000D03*
%TD*%
D14*
%TO.P,DC LED 4,1,K*%
%TO.N,Net-(D8-K)*%
X167568000Y-176256000D03*
D15*
%TO.P,DC LED 4,2,A*%
%TO.N,Net-(D8-A)*%
X167568000Y-178796000D03*
%TD*%
D20*
%TO.P,2200uF,1*%
%TO.N,Net-(D1-+)*%
X150998000Y-90286000D03*
D21*
%TO.P,2200uF,2*%
%TO.N,GND*%
X150998000Y-97786000D03*
%TD*%
D12*
%TO.P,2.2K,1*%
%TO.N,Net-(D6-K)*%
X171908000Y-129866000D03*
D13*
%TO.P,2.2K,2*%
%TO.N,GND2*%
X182068000Y-129866000D03*
%TD*%
D12*
%TO.P,2.2K,1*%
%TO.N,Net-(D11-K)*%
X182733000Y-135956000D03*
D13*
%TO.P,2.2K,2*%
%TO.N,GND1*%
X192893000Y-135956000D03*
%TD*%
D12*
%TO.P,10E,1*%
%TO.N,Net-(J6-Pin_2)*%
X182078000Y-121246000D03*
D13*
%TO.P,10E,2*%
%TO.N,Net-(R10-Pad2)*%
X171918000Y-121246000D03*
%TD*%
D12*
%TO.P,2.2K,1*%
%TO.N,Net-(D8-K)*%
X171888000Y-178546000D03*
D13*
%TO.P,2.2K,2*%
%TO.N,GND4*%
X182048000Y-178546000D03*
%TD*%
D14*
%TO.P,DC LED 3,1,K*%
%TO.N,Net-(D7-K)*%
X167548000Y-151856000D03*
D15*
%TO.P,DC LED 3,2,A*%
%TO.N,Net-(D7-A)*%
X167548000Y-154396000D03*
%TD*%
D18*
%TO.P,0.1uF,1*%
%TO.N,Net-(D7-A)*%
X162788000Y-153606000D03*
%TO.P,0.1uF,2*%
%TO.N,GND3*%
X157788000Y-153606000D03*
%TD*%
D14*
%TO.P,SIG LED 1,1,K*%
%TO.N,Net-(D9-K)*%
X185088000Y-94806000D03*
D15*
%TO.P,SIG LED 1,2,A*%
%TO.N,Net-(D9-A)*%
X187628000Y-94806000D03*
%TD*%
D14*
%TO.P,SIG LED 4 ,1,K*%
%TO.N,Net-(D12-K)*%
X185098000Y-168086000D03*
D15*
%TO.P,SIG LED 4 ,2,A*%
%TO.N,Net-(D12-A)*%
X187638000Y-168086000D03*
%TD*%
D22*
%TO.P,D4,1,+*%
%TO.N,Net-(D4-+)*%
X139108000Y-160406000D03*
D23*
%TO.P,D4,2*%
%TO.N,Net-(J4-Pin_1)*%
X134028000Y-160406000D03*
%TO.P,D4,3,-*%
%TO.N,GND4*%
X134028000Y-165486000D03*
%TO.P,D4,4*%
%TO.N,Net-(J4-Pin_2)*%
X139108000Y-165486000D03*
%TD*%
D16*
%TO.P,DC OUTPUT 1,1,Pin_1*%
%TO.N,GND*%
X188828000Y-106076000D03*
D17*
%TO.P,DC OUTPUT 1,2,Pin_2*%
%TO.N,Net-(J5-Pin_2)*%
X188828000Y-101076000D03*
%TD*%
D22*
%TO.P,D1,1,+*%
%TO.N,Net-(D1-+)*%
X139108000Y-87006000D03*
D23*
%TO.P,D1,2*%
%TO.N,Net-(J1-Pin_1)*%
X134028000Y-87006000D03*
%TO.P,D1,3,-*%
%TO.N,GND*%
X134028000Y-92086000D03*
%TO.P,D1,4*%
%TO.N,Net-(J1-Pin_2)*%
X139108000Y-92086000D03*
%TD*%
D20*
%TO.P,2200uF,1*%
%TO.N,Net-(D4-+)*%
X151128000Y-163818220D03*
D21*
%TO.P,2200uF,2*%
%TO.N,GND4*%
X151128000Y-171318220D03*
%TD*%
D14*
%TO.P,DC LED 2,1,K*%
%TO.N,Net-(D6-K)*%
X167548000Y-127896000D03*
D15*
%TO.P,DC LED 2,2,A*%
%TO.N,Net-(D6-A)*%
X167548000Y-130436000D03*
%TD*%
D16*
%TO.P,AC INPUT 1,1,Pin_1*%
%TO.N,Net-(J1-Pin_1)*%
X136508000Y-100956000D03*
D17*
%TO.P,AC INPUT 1,2,Pin_2*%
%TO.N,Net-(J1-Pin_2)*%
X136508000Y-105956000D03*
%TD*%
D12*
%TO.P,10K,1*%
%TO.N,Net-(J6-Pin_2)*%
X182068000Y-125566000D03*
D13*
%TO.P,10K,2*%
%TO.N,GND2*%
X171908000Y-125566000D03*
%TD*%
D24*
%TO.P,SIG IN 3,1,Pin_1*%
%TO.N,Net-(D11-A)*%
X192143000Y-143796000D03*
%TD*%
D14*
%TO.P,SIG LED 3,1,K*%
%TO.N,Net-(D11-K)*%
X185098000Y-143746000D03*
D15*
%TO.P,SIG LED 3,2,A*%
%TO.N,Net-(D11-A)*%
X187638000Y-143746000D03*
%TD*%
D10*
%TO.P,7815,1,IN*%
%TO.N,Net-(D1-+)*%
X163088000Y-88756000D03*
D11*
%TO.P,7815,2,GND*%
%TO.N,GND*%
X165628000Y-88756000D03*
%TO.P,7815,3,OUT*%
%TO.N,Net-(D5-A)*%
X168168000Y-88756000D03*
%TD*%
D12*
%TO.P,10E,1*%
%TO.N,Net-(J5-Pin_2)*%
X182018000Y-96726000D03*
D13*
%TO.P,10E,2*%
%TO.N,Net-(R9-Pad2)*%
X171858000Y-96726000D03*
%TD*%
D19*
%TO.P,TLP250H,1,NC*%
%TO.N,unconnected-(U6-NC-Pad1)*%
X180128000Y-111046000D03*
D13*
%TO.P,TLP250H,2,A*%
%TO.N,Net-(U6-A)*%
X177588000Y-111046000D03*
%TO.P,TLP250H,3,C*%
%TO.N,GND1*%
X175048000Y-111046000D03*
%TO.P,TLP250H,4,NC*%
%TO.N,unconnected-(U6-NC-Pad4)*%
X172508000Y-111046000D03*
%TO.P,TLP250H,5,VEE*%
%TO.N,GND2*%
X172508000Y-118666000D03*
%TO.P,TLP250H,6,VO*%
%TO.N,Net-(R10-Pad2)*%
X175048000Y-118666000D03*
%TO.P,TLP250H,7,VO*%
%TO.N,unconnected-(U6-VO-Pad7)*%
X177588000Y-118666000D03*
%TO.P,TLP250H,8,VCC*%
%TO.N,Net-(D6-A)*%
X180128000Y-118666000D03*
%TD*%
D20*
%TO.P,2200uF,1*%
%TO.N,Net-(D2-+)*%
X151078000Y-115038220D03*
D21*
%TO.P,2200uF,2*%
%TO.N,GND2*%
X151078000Y-122538220D03*
%TD*%
D25*
%TO.P,,1*%
%TO.N,N/C*%
X129950000Y-84820000D03*
%TD*%
D12*
%TO.P,2.2K,1*%
%TO.N,Net-(D7-K)*%
X171858000Y-154266000D03*
D13*
%TO.P,2.2K,2*%
%TO.N,GND3*%
X182018000Y-154266000D03*
%TD*%
D24*
%TO.P,GND,1,Pin_1*%
%TO.N,GND1*%
X195820000Y-143780000D03*
%TD*%
%TO.P,SIG IN 1,1,Pin_1*%
%TO.N,Net-(D9-A)*%
X192128000Y-94906000D03*
%TD*%
D18*
%TO.P,0.1uF,1*%
%TO.N,Net-(D8-A)*%
X162798000Y-178006000D03*
%TO.P,0.1uF,2*%
%TO.N,GND4*%
X157798000Y-178006000D03*
%TD*%
D25*
%TO.P,,1*%
%TO.N,N/C*%
X197100000Y-183170000D03*
%TD*%
D16*
%TO.P,AC INPUT 4,1,Pin_1*%
%TO.N,Net-(J4-Pin_1)*%
X136508000Y-174366000D03*
D17*
%TO.P,AC INPUT 4,2,Pin_2*%
%TO.N,Net-(J4-Pin_2)*%
X136508000Y-179366000D03*
%TD*%
D12*
%TO.P,220E,1*%
%TO.N,Net-(U7-A)*%
X182733000Y-138996000D03*
D13*
%TO.P,220E,2*%
%TO.N,Net-(D11-A)*%
X192893000Y-138996000D03*
%TD*%
D14*
%TO.P,DC LED 1,1,K*%
%TO.N,Net-(D5-K)*%
X167468000Y-102936000D03*
D15*
%TO.P,DC LED 1,2,A*%
%TO.N,Net-(D5-A)*%
X167468000Y-105476000D03*
%TD*%
D19*
%TO.P,TLP250H,1,NC*%
%TO.N,unconnected-(U7-NC-Pad1)*%
X180128000Y-135556000D03*
D13*
%TO.P,TLP250H,2,A*%
%TO.N,Net-(U7-A)*%
X177588000Y-135556000D03*
%TO.P,TLP250H,3,C*%
%TO.N,GND1*%
X175048000Y-135556000D03*
%TO.P,TLP250H,4,NC*%
%TO.N,unconnected-(U7-NC-Pad4)*%
X172508000Y-135556000D03*
%TO.P,TLP250H,5,VEE*%
%TO.N,GND3*%
X172508000Y-143176000D03*
%TO.P,TLP250H,6,VO*%
%TO.N,Net-(R11-Pad2)*%
X175048000Y-143176000D03*
%TO.P,TLP250H,7,VO*%
%TO.N,unconnected-(U7-VO-Pad7)*%
X177588000Y-143176000D03*
%TO.P,TLP250H,8,VCC*%
%TO.N,Net-(D7-A)*%
X180128000Y-143176000D03*
%TD*%
D10*
%TO.P,7815,1,IN*%
%TO.N,Net-(D3-+)*%
X163168000Y-137856000D03*
D11*
%TO.P,7815,2,GND*%
%TO.N,GND3*%
X165708000Y-137856000D03*
%TO.P,7815,3,OUT*%
%TO.N,Net-(D7-A)*%
X168248000Y-137856000D03*
%TD*%
D12*
%TO.P,10K,1*%
%TO.N,Net-(J5-Pin_2)*%
X182038000Y-101156000D03*
D13*
%TO.P,10K,2*%
%TO.N,GND*%
X171878000Y-101156000D03*
%TD*%
D19*
%TO.P,TLP250H,1,NC*%
%TO.N,unconnected-(U8-NC-Pad1)*%
X180118000Y-159856000D03*
D13*
%TO.P,TLP250H,2,A*%
%TO.N,Net-(U8-A)*%
X177578000Y-159856000D03*
%TO.P,TLP250H,3,C*%
%TO.N,GND1*%
X175038000Y-159856000D03*
%TO.P,TLP250H,4,NC*%
%TO.N,unconnected-(U8-NC-Pad4)*%
X172498000Y-159856000D03*
%TO.P,TLP250H,5,VEE*%
%TO.N,GND4*%
X172498000Y-167476000D03*
%TO.P,TLP250H,6,VO*%
%TO.N,Net-(R12-Pad2)*%
X175038000Y-167476000D03*
%TO.P,TLP250H,7,VO*%
%TO.N,unconnected-(U8-VO-Pad7)*%
X177578000Y-167476000D03*
%TO.P,TLP250H,8,VCC*%
%TO.N,Net-(D8-A)*%
X180118000Y-167476000D03*
%TD*%
D12*
%TO.P,2.2K,1*%
%TO.N,Net-(D12-K)*%
X182733000Y-160256000D03*
D13*
%TO.P,2.2K,2*%
%TO.N,GND1*%
X192893000Y-160256000D03*
%TD*%
D22*
%TO.P,220uF,1*%
%TO.N,Net-(D5-A)*%
X167938000Y-95666000D03*
D18*
%TO.P,220uF,2*%
%TO.N,GND*%
X162938000Y-95666000D03*
%TD*%
D16*
%TO.P,DC OUTPUT 3,1,Pin_1*%
%TO.N,GND3*%
X188843000Y-155016000D03*
D17*
%TO.P,DC OUTPUT 3,2,Pin_2*%
%TO.N,Net-(J7-Pin_2)*%
X188843000Y-150016000D03*
%TD*%
D20*
%TO.P,2200uF,1*%
%TO.N,Net-(D3-+)*%
X151118000Y-138766000D03*
D21*
%TO.P,2200uF,2*%
%TO.N,GND3*%
X151118000Y-146266000D03*
%TD*%
D16*
%TO.P,DC OUTPUT 4,1,Pin_1*%
%TO.N,GND4*%
X188843000Y-179366000D03*
D17*
%TO.P,DC OUTPUT 4,2,Pin_2*%
%TO.N,Net-(J8-Pin_2)*%
X188843000Y-174366000D03*
%TD*%
D22*
%TO.P,D3,1,+*%
%TO.N,Net-(D3-+)*%
X139108000Y-136106000D03*
D23*
%TO.P,D3,2*%
%TO.N,Net-(J3-Pin_1)*%
X134028000Y-136106000D03*
%TO.P,D3,3,-*%
%TO.N,GND3*%
X134028000Y-141186000D03*
%TO.P,D3,4*%
%TO.N,Net-(J3-Pin_2)*%
X139108000Y-141186000D03*
%TD*%
D12*
%TO.P,2.2K,1*%
%TO.N,Net-(D10-K)*%
X182758000Y-111446000D03*
D13*
%TO.P,2.2K,2*%
%TO.N,GND1*%
X192918000Y-111446000D03*
%TD*%
D22*
%TO.P,220uF,1*%
%TO.N,Net-(D8-A)*%
X168098000Y-169036000D03*
D18*
%TO.P,220uF,2*%
%TO.N,GND4*%
X163098000Y-169036000D03*
%TD*%
D24*
%TO.P,SIG IN 2,1,Pin_1*%
%TO.N,Net-(D10-A)*%
X192143000Y-119246000D03*
%TD*%
D22*
%TO.P,220uF,1*%
%TO.N,Net-(D6-A)*%
X167995677Y-120656000D03*
D18*
%TO.P,220uF,2*%
%TO.N,GND2*%
X162995677Y-120656000D03*
%TD*%
D16*
%TO.P,DC OUTPUT 2,1,Pin_1*%
%TO.N,GND2*%
X188843000Y-130536000D03*
D17*
%TO.P,DC OUTPUT 2,2,Pin_2*%
%TO.N,Net-(J6-Pin_2)*%
X188843000Y-125536000D03*
%TD*%
D12*
%TO.P,2.2K,1*%
%TO.N,Net-(D9-K)*%
X182718000Y-86866000D03*
D13*
%TO.P,2.2K,2*%
%TO.N,GND1*%
X192878000Y-86866000D03*
%TD*%
D12*
%TO.P,2.2K,1*%
%TO.N,Net-(D5-K)*%
X171848000Y-105516000D03*
D13*
%TO.P,2.2K,2*%
%TO.N,GND*%
X182008000Y-105516000D03*
%TD*%
D16*
%TO.P,AC INPUT 2,1,Pin_1*%
%TO.N,Net-(J2-Pin_1)*%
X136508000Y-125536000D03*
D17*
%TO.P,AC INPUT 2,2,Pin_2*%
%TO.N,Net-(J2-Pin_2)*%
X136508000Y-130536000D03*
%TD*%
D18*
%TO.P,0.1uF,1*%
%TO.N,Net-(D5-A)*%
X162518000Y-104786000D03*
%TO.P,0.1uF,2*%
%TO.N,GND*%
X157518000Y-104786000D03*
%TD*%
D22*
%TO.P,D2,1,+*%
%TO.N,Net-(D2-+)*%
X139108000Y-111596000D03*
D23*
%TO.P,D2,2*%
%TO.N,Net-(J2-Pin_1)*%
X134028000Y-111596000D03*
%TO.P,D2,3,-*%
%TO.N,GND2*%
X134028000Y-116676000D03*
%TO.P,D2,4*%
%TO.N,Net-(J2-Pin_2)*%
X139108000Y-116676000D03*
%TD*%
D24*
%TO.P,SIG IN 4,1,Pin_1*%
%TO.N,Net-(D12-A)*%
X192143000Y-167926000D03*
%TD*%
D25*
%TO.P,,1*%
%TO.N,N/C*%
X129950000Y-183170000D03*
%TD*%
%TO.P,,1*%
%TO.N,N/C*%
X197100000Y-84820000D03*
%TD*%
D22*
%TO.P,220uF,1*%
%TO.N,Net-(D7-A)*%
X168038000Y-144626000D03*
D18*
%TO.P,220uF,2*%
%TO.N,GND3*%
X163038000Y-144626000D03*
%TD*%
M02*
