%TF.GenerationSoftware,KiCad,Pcbnew,8.0.4*%
%TF.CreationDate,2025-01-05T13:35:29+05:30*%
%TF.ProjectId,Driver Circuit Combined - V1,44726976-6572-4204-9369-726375697420,rev?*%
%TF.SameCoordinates,Original*%
%TF.FileFunction,Soldermask,Bot*%
%TF.FilePolarity,Negative*%
%FSLAX46Y46*%
G04 Gerber Fmt 4.6, Leading zero omitted, Abs format (unit mm)*
G04 Created by KiCad (PCBNEW 8.0.4) date 2025-01-05 13:35:29*
%MOMM*%
%LPD*%
G01*
G04 APERTURE LIST*
%ADD10R,1.905000X2.000000*%
%ADD11O,1.905000X2.000000*%
%ADD12C,1.600000*%
%ADD13O,1.600000X1.600000*%
%ADD14R,1.800000X1.800000*%
%ADD15C,1.800000*%
%ADD16R,2.600000X2.600000*%
%ADD17C,2.600000*%
%ADD18C,2.000000*%
%ADD19R,1.600000X1.600000*%
%ADD20R,2.400000X2.400000*%
%ADD21C,2.400000*%
%ADD22R,2.000000X2.000000*%
%ADD23O,2.000000X2.000000*%
%ADD24R,1.700000X1.700000*%
%ADD25C,3.200000*%
G04 APERTURE END LIST*
D10*
%TO.C,7815*%
X163158000Y-113346000D03*
D11*
X165698000Y-113346000D03*
X168238000Y-113346000D03*
%TD*%
D12*
%TO.C,10E*%
X182058000Y-170056000D03*
D13*
X171898000Y-170056000D03*
%TD*%
D12*
%TO.C,10K*%
X182058000Y-150046000D03*
D13*
X171898000Y-150046000D03*
%TD*%
D12*
%TO.C,220E*%
X182718000Y-90006000D03*
D13*
X192878000Y-90006000D03*
%TD*%
D12*
%TO.C,220E*%
X182758000Y-114476000D03*
D13*
X192918000Y-114476000D03*
%TD*%
D10*
%TO.C,7815*%
X163178000Y-162156000D03*
D11*
X165718000Y-162156000D03*
X168258000Y-162156000D03*
%TD*%
D14*
%TO.C,SIG LED 2*%
X185138000Y-119246000D03*
D15*
X187678000Y-119246000D03*
%TD*%
D12*
%TO.C,10K*%
X182078000Y-174286000D03*
D13*
X171918000Y-174286000D03*
%TD*%
D16*
%TO.C,AC INPUT 3*%
X136508000Y-150016000D03*
D17*
X136508000Y-155016000D03*
%TD*%
D12*
%TO.C,220E*%
X182733000Y-163296000D03*
D13*
X192893000Y-163296000D03*
%TD*%
D18*
%TO.C,0.1uF*%
X162638000Y-129646000D03*
X157638000Y-129646000D03*
%TD*%
D19*
%TO.C,TL250H*%
X180088000Y-86456000D03*
D13*
X177548000Y-86456000D03*
X175008000Y-86456000D03*
X172468000Y-86456000D03*
X172468000Y-94076000D03*
X175008000Y-94076000D03*
X177548000Y-94076000D03*
X180088000Y-94076000D03*
%TD*%
D12*
%TO.C,10E*%
X182068000Y-145796000D03*
D13*
X171908000Y-145796000D03*
%TD*%
D14*
%TO.C,DC LED 4*%
X167568000Y-176256000D03*
D15*
X167568000Y-178796000D03*
%TD*%
D20*
%TO.C,2200uF*%
X150998000Y-90286000D03*
D21*
X150998000Y-97786000D03*
%TD*%
D12*
%TO.C,2.2K*%
X171908000Y-129866000D03*
D13*
X182068000Y-129866000D03*
%TD*%
D12*
%TO.C,2.2K*%
X182733000Y-135956000D03*
D13*
X192893000Y-135956000D03*
%TD*%
D12*
%TO.C,10E*%
X182078000Y-121246000D03*
D13*
X171918000Y-121246000D03*
%TD*%
D12*
%TO.C,2.2K*%
X171888000Y-178546000D03*
D13*
X182048000Y-178546000D03*
%TD*%
D14*
%TO.C,DC LED 3*%
X167548000Y-151856000D03*
D15*
X167548000Y-154396000D03*
%TD*%
D18*
%TO.C,0.1uF*%
X162788000Y-153606000D03*
X157788000Y-153606000D03*
%TD*%
D14*
%TO.C,SIG LED 1*%
X185088000Y-94806000D03*
D15*
X187628000Y-94806000D03*
%TD*%
D14*
%TO.C,SIG LED 4 *%
X185098000Y-168086000D03*
D15*
X187638000Y-168086000D03*
%TD*%
D22*
%TO.C,D4*%
X139108000Y-160406000D03*
D23*
X134028000Y-160406000D03*
X134028000Y-165486000D03*
X139108000Y-165486000D03*
%TD*%
D16*
%TO.C,DC OUTPUT 1*%
X188828000Y-106076000D03*
D17*
X188828000Y-101076000D03*
%TD*%
D22*
%TO.C,D1*%
X139108000Y-87006000D03*
D23*
X134028000Y-87006000D03*
X134028000Y-92086000D03*
X139108000Y-92086000D03*
%TD*%
D20*
%TO.C,2200uF*%
X151128000Y-163818220D03*
D21*
X151128000Y-171318220D03*
%TD*%
D14*
%TO.C,DC LED 2*%
X167548000Y-127896000D03*
D15*
X167548000Y-130436000D03*
%TD*%
D16*
%TO.C,AC INPUT 1*%
X136508000Y-100956000D03*
D17*
X136508000Y-105956000D03*
%TD*%
D12*
%TO.C,10K*%
X182068000Y-125566000D03*
D13*
X171908000Y-125566000D03*
%TD*%
D24*
%TO.C,SIG IN 3*%
X192143000Y-143796000D03*
%TD*%
D14*
%TO.C,SIG LED 3*%
X185098000Y-143746000D03*
D15*
X187638000Y-143746000D03*
%TD*%
D10*
%TO.C,7815*%
X163088000Y-88756000D03*
D11*
X165628000Y-88756000D03*
X168168000Y-88756000D03*
%TD*%
D12*
%TO.C,10E*%
X182018000Y-96726000D03*
D13*
X171858000Y-96726000D03*
%TD*%
D19*
%TO.C,TLP250H*%
X180128000Y-111046000D03*
D13*
X177588000Y-111046000D03*
X175048000Y-111046000D03*
X172508000Y-111046000D03*
X172508000Y-118666000D03*
X175048000Y-118666000D03*
X177588000Y-118666000D03*
X180128000Y-118666000D03*
%TD*%
D20*
%TO.C,2200uF*%
X151078000Y-115038220D03*
D21*
X151078000Y-122538220D03*
%TD*%
D25*
%TO.C,*%
X129950000Y-84820000D03*
%TD*%
D12*
%TO.C,2.2K*%
X171858000Y-154266000D03*
D13*
X182018000Y-154266000D03*
%TD*%
D24*
%TO.C,GND*%
X195820000Y-143780000D03*
%TD*%
%TO.C,SIG IN 1*%
X192128000Y-94906000D03*
%TD*%
D18*
%TO.C,0.1uF*%
X162798000Y-178006000D03*
X157798000Y-178006000D03*
%TD*%
D25*
%TO.C,*%
X197100000Y-183170000D03*
%TD*%
D16*
%TO.C,AC INPUT 4*%
X136508000Y-174366000D03*
D17*
X136508000Y-179366000D03*
%TD*%
D12*
%TO.C,220E*%
X182733000Y-138996000D03*
D13*
X192893000Y-138996000D03*
%TD*%
D14*
%TO.C,DC LED 1*%
X167468000Y-102936000D03*
D15*
X167468000Y-105476000D03*
%TD*%
D19*
%TO.C,TLP250H*%
X180128000Y-135556000D03*
D13*
X177588000Y-135556000D03*
X175048000Y-135556000D03*
X172508000Y-135556000D03*
X172508000Y-143176000D03*
X175048000Y-143176000D03*
X177588000Y-143176000D03*
X180128000Y-143176000D03*
%TD*%
D10*
%TO.C,7815*%
X163168000Y-137856000D03*
D11*
X165708000Y-137856000D03*
X168248000Y-137856000D03*
%TD*%
D12*
%TO.C,10K*%
X182038000Y-101156000D03*
D13*
X171878000Y-101156000D03*
%TD*%
D19*
%TO.C,TLP250H*%
X180118000Y-159856000D03*
D13*
X177578000Y-159856000D03*
X175038000Y-159856000D03*
X172498000Y-159856000D03*
X172498000Y-167476000D03*
X175038000Y-167476000D03*
X177578000Y-167476000D03*
X180118000Y-167476000D03*
%TD*%
D12*
%TO.C,2.2K*%
X182733000Y-160256000D03*
D13*
X192893000Y-160256000D03*
%TD*%
D22*
%TO.C,220uF*%
X167938000Y-95666000D03*
D18*
X162938000Y-95666000D03*
%TD*%
D16*
%TO.C,DC OUTPUT 3*%
X188843000Y-155016000D03*
D17*
X188843000Y-150016000D03*
%TD*%
D20*
%TO.C,2200uF*%
X151118000Y-138766000D03*
D21*
X151118000Y-146266000D03*
%TD*%
D16*
%TO.C,DC OUTPUT 4*%
X188843000Y-179366000D03*
D17*
X188843000Y-174366000D03*
%TD*%
D22*
%TO.C,D3*%
X139108000Y-136106000D03*
D23*
X134028000Y-136106000D03*
X134028000Y-141186000D03*
X139108000Y-141186000D03*
%TD*%
D12*
%TO.C,2.2K*%
X182758000Y-111446000D03*
D13*
X192918000Y-111446000D03*
%TD*%
D22*
%TO.C,220uF*%
X168098000Y-169036000D03*
D18*
X163098000Y-169036000D03*
%TD*%
D24*
%TO.C,SIG IN 2*%
X192143000Y-119246000D03*
%TD*%
D22*
%TO.C,220uF*%
X167995677Y-120656000D03*
D18*
X162995677Y-120656000D03*
%TD*%
D16*
%TO.C,DC OUTPUT 2*%
X188843000Y-130536000D03*
D17*
X188843000Y-125536000D03*
%TD*%
D12*
%TO.C,2.2K*%
X182718000Y-86866000D03*
D13*
X192878000Y-86866000D03*
%TD*%
D12*
%TO.C,2.2K*%
X171848000Y-105516000D03*
D13*
X182008000Y-105516000D03*
%TD*%
D16*
%TO.C,AC INPUT 2*%
X136508000Y-125536000D03*
D17*
X136508000Y-130536000D03*
%TD*%
D18*
%TO.C,0.1uF*%
X162518000Y-104786000D03*
X157518000Y-104786000D03*
%TD*%
D22*
%TO.C,D2*%
X139108000Y-111596000D03*
D23*
X134028000Y-111596000D03*
X134028000Y-116676000D03*
X139108000Y-116676000D03*
%TD*%
D24*
%TO.C,SIG IN 4*%
X192143000Y-167926000D03*
%TD*%
D25*
%TO.C,*%
X129950000Y-183170000D03*
%TD*%
%TO.C,*%
X197100000Y-84820000D03*
%TD*%
D22*
%TO.C,220uF*%
X168038000Y-144626000D03*
D18*
X163038000Y-144626000D03*
%TD*%
M02*
